<svg id="Layer_1" data-name="Layer 1" xmlns="http://www.w3.org/2000/svg" viewBox="0 0 200 200"><defs><style>.cls-1{fill:#ec6493;}</style></defs><path class="cls-1" d="M53.69,144.26a50.55,50.55,0,0,0,7.81,1.89,51.07,51.07,0,0,1-15.61,0,50.55,50.55,0,0,1-7.81-1.89,47.28,47.28,0,0,1-7.8-3.33,49,49,0,0,1-7.79-5.14h0a49.94,49.94,0,0,1,0-78h0a49,49,0,0,1,7.79-5.14,47.28,47.28,0,0,1,7.8-3.33,50.55,50.55,0,0,1,7.81-1.89,51.07,51.07,0,0,1,15.61,0,50.55,50.55,0,0,0-7.81,1.89h0a47.18,47.18,0,0,0-7.79,3.33h0a49.5,49.5,0,0,0-7.79,5.14h0a49.93,49.93,0,0,0,0,78h0a49.5,49.5,0,0,0,7.79,5.14h0a47.18,47.18,0,0,0,7.79,3.33Z"/><path class="cls-1" d="M84.9,144.26a50.43,50.43,0,0,0,7.8,1.89,51.42,51.42,0,0,1-7.8.6,50.16,50.16,0,0,1-7.8-.6h0a50.3,50.3,0,0,1-7.79-1.89h0a47.18,47.18,0,0,1-7.79-3.33h0a49.5,49.5,0,0,1-7.79-5.14h0A50,50,0,0,1,45.89,128a49,49,0,0,1-7.81-13.75,50.22,50.22,0,0,1,0-34.85,49,49,0,0,1,7.81-13.75,50,50,0,0,1,7.79-7.81h0a49.5,49.5,0,0,1,7.79-5.14h0a47.18,47.18,0,0,1,7.79-3.33h0a50.3,50.3,0,0,1,7.79-1.89h0a50.16,50.16,0,0,1,7.8-.6,51.42,51.42,0,0,1,7.8.6,50.43,50.43,0,0,0-7.8,1.89,47.65,47.65,0,0,0-7.8,3.33h0a49.5,49.5,0,0,0-7.79,5.14h0a49.6,49.6,0,0,0-7.79,7.81,49,49,0,0,0-7.81,13.75h0a49.86,49.86,0,0,0,0,34.83h0A49,49,0,0,0,61.5,128a49.6,49.6,0,0,0,7.79,7.81h0a49.5,49.5,0,0,0,7.79,5.14h0A47.65,47.65,0,0,0,84.9,144.26Z"/><path class="cls-1" d="M116.11,144.26a50.55,50.55,0,0,0,7.81,1.89,51.07,51.07,0,0,1-15.61,0,50.55,50.55,0,0,1-7.81-1.89,48,48,0,0,1-7.8-3.33,49.5,49.5,0,0,1-7.79-5.14h0A50.09,50.09,0,0,1,77.1,128a49.24,49.24,0,0,1-7.8-13.75h0a49.86,49.86,0,0,1,0-34.83h0a49.24,49.24,0,0,1,7.8-13.75,50.09,50.09,0,0,1,7.8-7.81h0a49.5,49.5,0,0,1,7.79-5.14,48,48,0,0,1,7.8-3.33,50.55,50.55,0,0,1,7.81-1.89,51.07,51.07,0,0,1,15.61,0,50.55,50.55,0,0,0-7.81,1.89h0a47.55,47.55,0,0,0-7.79,3.33h0a49.5,49.5,0,0,0-7.79,5.14h0a49.89,49.89,0,0,0-18.72,39A49.89,49.89,0,0,0,92.7,128a50.34,50.34,0,0,0,7.79,7.79h0a49.5,49.5,0,0,0,7.79,5.14h0a47.55,47.55,0,0,0,7.79,3.33Z"/><path class="cls-1" d="M197.27,96.81a50,50,0,0,1-50,49.94,51.55,51.55,0,0,1-7.81-.6,50.58,50.58,0,0,1-7.79-1.89h0a47.55,47.55,0,0,1-7.79-3.33h0a49.5,49.5,0,0,1-7.79-5.14h0a50,50,0,0,1-7.79-7.81,49.52,49.52,0,0,1-7.81-13.75,50.22,50.22,0,0,1,0-34.85,49.52,49.52,0,0,1,7.81-13.75,50,50,0,0,1,7.79-7.81h0a49.5,49.5,0,0,1,7.79-5.14h0a47.55,47.55,0,0,1,7.79-3.33h0a50.58,50.58,0,0,1,7.79-1.89,51.55,51.55,0,0,1,7.81-.6A50,50,0,0,1,197.27,96.81Z"/></svg>