<svg id="Layer_1" data-name="Layer 1" xmlns="http://www.w3.org/2000/svg" viewBox="0 0 200 200"><defs><style>.cls-1{fill:#ec6493;}</style></defs><path class="cls-1" d="M199.74,124.84c-1.84-9.09-7.85-14.46-16.29-17.17-9.35-3-18.6-2.11-27.62,1.7-.57.25-1.38,1.27-2,0-1.53-3.14-3.31-6.15-3.91-9.72-.78-4.75.16-9.19,1.72-13.62.78-2.19.19-3-2.13-3.45a19.69,19.69,0,0,0-5,0c-3.77.29-4.65.83-5.46,4.41-2.2,9.8-8.2,17.69-12.81,26.54-.38-.61-.6-.93-.78-1.28-3.58-6.59-3.23-13.31-.71-20.13.88-2.38.21-3.45-2.32-3.7a21.5,21.5,0,0,0-6.92.41,3.32,3.32,0,0,0-2.88,2.75,27.41,27.41,0,0,1-1.38,4.82c-5.39,12.61-10.78,25.23-16.91,37.5a5.35,5.35,0,0,1-2,2.66,18.83,18.83,0,0,1,.24-6.31c1.5-6.2,3.08-12.38,4.57-18.58.71-3-1.65-5.11-4.61-4.23-.52.15-1,.39-1.62.63-.1-2.28.33-4.42,0-6.59-.68-4.27-3.61-6.48-7.84-5.57-6.36,1.37-10.84,5.55-14.89,10.3a8.06,8.06,0,0,1-2.26,2.09c-5.75,3.11-11.5,6.24-17.21,9.45a1.77,1.77,0,0,1-2.62-.35,79.65,79.65,0,0,0-9.44-8.15c-5.36-4.19-10.9-8.17-15.37-13.37C15.33,89,14.39,81.38,18.05,73.13a35.45,35.45,0,0,1,6.61-9.65C32.44,55.08,42,49.19,52.05,43.93c13.73-7.22,28.07-12.31,43.89-11.74a29.94,29.94,0,0,1,13.81,3.43c4.54,2.53,6.5,6.76,5.83,11.89a26.52,26.52,0,0,1-5.37,12.64c-7.65,10.2-18,16.45-30.14,19.63-11,2.88-22.08,4.92-31.52-4.29-.27-.26-.61-.52-1.06-.24A1.18,1.18,0,0,0,47,76.49a8.3,8.3,0,0,0,2.3,4.64,20.15,20.15,0,0,0,12.13,6.74,62.34,62.34,0,0,0,44.39-9.62,45.09,45.09,0,0,0,18.84-23.83c5-14.92-.55-26.3-15.44-31.46-10.24-3.56-20.75-3.57-31.26-1.58C62.34,24.33,48.2,30.93,34.73,39,24.85,45,16,52.13,9,61.41a58.22,58.22,0,0,0-4.59,7.31C-.88,78.4.29,87.36,7.19,95.83c5.16,6.34,11.54,11.27,18.13,16,4.86,3.46,9.91,6.65,14.54,10.51A8,8,0,0,1,37.12,124c-8.21,4.37-16.21,9-22.78,15.76C9.19,145,6.5,151.28,7.75,158.72c.73,4.33,2.58,8.18,7.19,9.64a23.48,23.48,0,0,0,11.65.51,33,33,0,0,0,24.82-44c-.31-.86-.5-1.38.47-1.92,3.32-1.85,6.59-3.77,10.4-6a47.57,47.57,0,0,0-2.47,11.23,29.52,29.52,0,0,0,3.69,18.7c1.13,2,2.53,3.63,5,4,3.79.61,6.33-1,8.16-4.13a89.84,89.84,0,0,0,6.07-12.72c.67,0,.69,0,.49.94-.15,3.2-.37,6.4.76,9.5,1.53,4.18,4.83,5.08,8.25,2.22a18.71,18.71,0,0,0,4.24-5.17,275.71,275.71,0,0,0,15.56-31.79,14.09,14.09,0,0,1,2.1-4.36c.94,4.6,1.79,9.05,4.14,12.86,1.86,3,1.52,5.16-.75,7.72-3.77,4.24-7.26,8.73-10.82,13.16-1,1.3-1.69,2.84-.89,4.46s2.47,1.92,4.11,1.91a25.23,25.23,0,0,0,16.15-5.75,13.5,13.5,0,0,0,5.11-11.15,20.79,20.79,0,0,0-1.71-7.67,2.64,2.64,0,0,1,.29-2.84A154.3,154.3,0,0,0,140,100.84c.22-.41.23-1.2,1.12-1a42,42,0,0,0,4.47,13.53c.78,1.39.51,2.17-.69,3.17a32.81,32.81,0,0,0-7.73,9.41,15.78,15.78,0,0,0-2.3,8.68c.21,3.27,2.5,5,5.74,4.39a25.42,25.42,0,0,0,10.19-4.54c6.86-5,8.54-9.76,6.1-17.86-.5-1.62.16-1.89,1.37-2.28a39.66,39.66,0,0,1,22.46-.58c6.13,1.53,11.31,4.45,14.05,10.51,2.26,5,1,9.64-3.39,12.94-.63.48-1.31.9-2,1.37-.33.24-.66.57-.51,1a1,1,0,0,0,1.18.59,9.25,9.25,0,0,0,1.61-.47A13.27,13.27,0,0,0,199.74,124.84Zm-154,8.62c0,11.16-7.67,21.45-17.7,24.25a2,2,0,0,0-.23.07c-6.24,1.66-9.39-1.37-7.84-7.62a20.85,20.85,0,0,1,5.64-9.84c5.32-5.27,11.54-9.29,17.93-13.09,1.05-.63,1.43-.36,1.62.67A22,22,0,0,1,45.71,133.46Zm40-27.44c-.85,5.39-2.82,10.45-4.73,15.52a118.3,118.3,0,0,1-6.18,14.76c-.63,1.18-1.27,2.89-2.7,2.76-1.67-.16-1.67-2.08-2-3.42-.47-1.65-.26-3.35-.39-5.21,0-8.38,3.11-15.86,8.18-22.61a11.67,11.67,0,0,1,5-4C85.12,102.89,86.05,103.58,85.67,106ZM113,139.22a147.92,147.92,0,0,0,9.89-11.75C122.56,133.18,117.41,139.14,113,139.22Zm30.2-6.93c-.52.23-1.08.62-1.58.32s-.36-1-.2-1.54A24.25,24.25,0,0,1,149.1,119,10.58,10.58,0,0,1,143.2,132.29Z"/></svg>