<svg id="Layer_1" data-name="Layer 1" xmlns="http://www.w3.org/2000/svg" viewBox="0 0 58.07 59.95"><defs><style>.cls-1{fill:#fff;}</style></defs><path class="cls-1" d="M12.12,8.35C23.83,3.23,35.33,3.22,47,8.37L51.34,1l.43.05c0,1.17,0,2.35,0,3.53q.43,22.24.88,44.5A4.75,4.75,0,0,1,49.75,54l-.31.16c-12.28,6.14-12.82,6.28-26.55,5.38a14.17,14.17,0,0,1-4.69-1.2c-3.08-1.36-6.06-2.95-9.07-4.45a4.28,4.28,0,0,1-2.62-4c.32-16.22.7-32.44,1.06-49.25ZM10.2,37.91c0,3.37.17,6.45-.06,9.51-.17,2.27.76,3.2,2.65,4.31a32.21,32.21,0,0,0,18.46,4.38c4.3-.18,8.28-.65,12-2.91,1.82-1.11,4.49-1.6,5.43-3.18s.23-4.17.24-6.31V37.92c-4.4.67-8.29,1.44-12.21,1.82a8.24,8.24,0,0,0-6,3.25,10.77,10.77,0,0,1-1.29,1.16A24.13,24.13,0,0,0,27.45,42c-.7-.64-1.46-1.51-2.31-1.66C20.35,39.45,15.53,38.76,10.2,37.91Zm4.14-10.38v6.38l11.38,2.48,1.19-2.3Zm30.41,6.39V27.57L32.21,34.12l1.24,2.27Z"/></svg>