<svg id="Layer_1" data-name="Layer 1" xmlns="http://www.w3.org/2000/svg" viewBox="0 0 410 26"><defs><style>.cls-1{fill:#404040;}</style></defs><path class="cls-1" d="M33.2.8V8.72H16.7V11.6H30v7.2H16.7V26H.2V.8Z"/><path class="cls-1" d="M63,26l-7.62-8.28h-.63V26H38.28V.8S47.16.44,56.69.44C70.64.44,77,4,77,9.26s-5.71,7-5.71,7L82.07,26ZM56.69,11.24c2.22,0,3.8-.9,3.8-2s-1.58-2-3.8-2H54.78v4Z"/><path class="cls-1" d="M108.09,26.54c-14.59,0-24.75-5.76-24.75-13.14S93.5.26,108.09.26,132.84,6,132.84,13.4,122.69,26.54,108.09,26.54Zm0-17.46c-3.81,0-7,1.8-7,4.32s3.17,4.32,7,4.32,7-1.8,7-4.32S111.9,9.08,108.09,9.08Z"/><path class="cls-1" d="M155.69,14.84V26h-16.5V.8H157.6L168.39,12V.8h16.5V26H166.48Z"/><path class="cls-1" d="M230.58.8V9.08H218.53V26H202V9.08H190V.8Z"/><path class="cls-1" d="M252.16,18.8h19V26H235.67V.8h34.26V8H252.16V9.8h16.5V17h-16.5Z"/><path class="cls-1" d="M293.42,14.84V26h-16.5V.8h18.4L306.11,12V.8h16.5V26h-18.4Z"/><path class="cls-1" d="M349.27,26.36c-10.15,0-19-.36-19-.36V.8s8.89-.36,19-.36c16.88,0,25.38,5.22,25.38,13S366.15,26.36,349.27,26.36Zm0-7.92c4.76,0,7.62-1.62,7.62-5s-2.86-5-7.62-5h-2.54V18.44Z"/><path class="cls-1" d="M410.2,26H393.7V.8h16.5Z"/></svg>