<svg id="Layer_1" data-name="Layer 1" xmlns="http://www.w3.org/2000/svg" viewBox="0 0 410 26"><defs><style>.cls-1{fill:gray;}</style></defs><path class="cls-1" d="M33.2.3V8.22H16.7V11.1H30v7.2H16.7v7.2H.2V.3Z"/><path class="cls-1" d="M63,25.5l-7.62-8.28h-.63V25.5H38.28V.3s8.88-.36,18.41-.36c14,0,20.3,3.6,20.3,8.82s-5.71,7-5.71,7L82.07,25.5ZM56.69,10.74c2.22,0,3.8-.9,3.8-2s-1.58-2-3.8-2H54.78v4Z"/><path class="cls-1" d="M108.09,26C93.5,26,83.34,20.28,83.34,12.9S93.5-.24,108.09-.24s24.75,5.76,24.75,13.14S122.69,26,108.09,26Zm0-17.46c-3.81,0-7,1.8-7,4.32s3.17,4.32,7,4.32,7-1.8,7-4.32S111.9,8.58,108.09,8.58Z"/><path class="cls-1" d="M155.69,14.34V25.5h-16.5V.3H157.6l10.79,11.16V.3h16.5V25.5H166.48Z"/><path class="cls-1" d="M230.58.3V8.58H218.53V25.5H202V8.58H190V.3Z"/><path class="cls-1" d="M252.16,18.3h19v7.2H235.67V.3h34.26V7.5H252.16V9.3h16.5v7.2h-16.5Z"/><path class="cls-1" d="M293.42,14.34V25.5h-16.5V.3h18.4l10.79,11.16V.3h16.5V25.5h-18.4Z"/><path class="cls-1" d="M349.27,25.86c-10.15,0-19-.36-19-.36V.3s8.89-.36,19-.36c16.88,0,25.38,5.22,25.38,13S366.15,25.86,349.27,25.86Zm0-7.92c4.76,0,7.62-1.62,7.62-5s-2.86-5-7.62-5h-2.54V17.94Z"/><path class="cls-1" d="M410.2,25.5H393.7V.3h16.5Z"/></svg>