<svg id="Layer_1" data-name="Layer 1" xmlns="http://www.w3.org/2000/svg" viewBox="0 0 200 200"><defs><style>.cls-1{fill:#010101;}.cls-2{fill:#f8f7f7;}</style></defs><path class="cls-1" d="M81.49,92.71A4.53,4.53,0,0,1,77,98.52H71c-2,0-4,0-6,0-1.1,0-1.43.28-1.4,1.37q.12,6.06,0,12.11a4.5,4.5,0,0,1-8.71,1.73,6.5,6.5,0,0,1-.38-2.62c0-3.71,0-7.41,0-11.12,0-1.14-.3-1.5-1.47-1.47-3.76.07-7.52,0-11.27,0-3.3,0-5.39-1.8-5.34-4.57s2.19-4.49,5.31-4.49c3.66,0,7.31-.11,11,0,1.6.08,1.87-.48,1.85-1.93-.1-3.63-.05-7.29,0-10.94,0-3.2,1.78-5.18,4.55-5.16s4.52,2.08,4.55,5.21c0,3.81,0,7.64,0,11.45,0,1.09.28,1.37,1.37,1.37,4-.07,8,0,11.94,0A4.7,4.7,0,0,1,81.49,92.71Z"/><path class="cls-1" d="M127.86,81.56a9,9,0,1,1-9-9.07A8.93,8.93,0,0,1,127.86,81.56Z"/><path class="cls-1" d="M127.86,106.39a9,9,0,1,1-9.12-9A9,9,0,0,1,127.86,106.39Z"/><path class="cls-1" d="M152.87,106.47a9.05,9.05,0,1,1-9.09-9A9.09,9.09,0,0,1,152.87,106.47Z"/><path class="cls-1" d="M152.87,81.48a9.05,9.05,0,1,1-9-9A9,9,0,0,1,152.87,81.48Z"/><path class="cls-1" d="M189.26,115.13a115.72,115.72,0,0,0-10.08-37.74c-4.72-10-10.76-19.07-19.7-25.87-10.26-7.8-21.28-9.75-33-3.71-12,6.15-24.68,6.09-37.58,4.93-6.1-.56-11.63-2.9-17.09-5.54A28.43,28.43,0,0,0,60,44.31c-7.59-.13-14.12,2.74-20,7.26-8.51,6.5-14.43,15.06-19,24.55C12.6,93.27,9.47,111.52,9.42,128.69a128.61,128.61,0,0,0,1.17,19.78c.84,5.36,2.06,10.62,5,15.31a15.44,15.44,0,0,0,11.1,7.32A23.38,23.38,0,0,0,40,169.22c5.89-2.57,11.46-5.74,17.07-8.84,8.35-4.59,16.55-9.55,25.49-13,6.68-2.56,13.49-4.29,20.72-3.5A57.83,57.83,0,0,1,120.83,149c8.45,3.73,16.33,8.53,24.43,13,5.53,3,10.92,6.32,17,8.25,9.93,3.17,19.91.41,24.1-11.38a57.81,57.81,0,0,0,2.92-12.9A146.13,146.13,0,0,0,189.26,115.13Zm-10.33,37.33a24.16,24.16,0,0,1-1.55,4.37c-2.24,4.69-5.49,6.27-10.56,5.15a32.32,32.32,0,0,1-7.11-2.69c-9.2-4.49-17.91-9.85-27-14.58a97.29,97.29,0,0,0-22.27-8.83c-10.21-2.47-20.08-1.07-29.76,2.49-9.12,3.35-17.5,8.17-25.95,12.87-5.44,3-10.87,6.15-16.53,8.76a22.18,22.18,0,0,1-7.75,2.24,7.82,7.82,0,0,1-8-4.55,27.23,27.23,0,0,1-2.87-9.62c-2.59-20.83-1.15-41.27,6.3-61,3.65-9.68,8.63-18.54,16.27-25.7,4.4-4.11,9.32-7.26,15.54-7.85a19.74,19.74,0,0,1,10.87,2.26,55.77,55.77,0,0,0,18.87,6c14.86,1.55,29.48,1.24,43.2-5.89,7.44-3.86,14.62-3,21.48,1.52,6.3,4.12,10.92,9.8,14.75,16.15,6.53,10.8,10.24,22.58,12.32,35A123.87,123.87,0,0,1,181,129.12C180.93,138,180.68,145.32,178.93,152.46Z"/><path class="cls-2" d="M81.49,92.71A4.53,4.53,0,0,1,77,98.52H71c-2,0-4,0-6,0-1.1,0-1.43.28-1.4,1.37q.12,6.06,0,12.11a4.5,4.5,0,0,1-8.71,1.73,6.5,6.5,0,0,1-.38-2.62c0-3.71,0-7.41,0-11.12,0-1.14-.3-1.5-1.47-1.47-3.76.07-7.52,0-11.27,0-3.3,0-5.39-1.8-5.34-4.57s2.19-4.49,5.31-4.49c3.66,0,7.31-.11,11,0,1.6.08,1.87-.48,1.85-1.93-.1-3.63-.05-7.29,0-10.94,0-3.2,1.78-5.18,4.55-5.16s4.52,2.08,4.55,5.21c0,3.81,0,7.64,0,11.45,0,1.09.28,1.37,1.37,1.37,4-.07,8,0,11.94,0A4.7,4.7,0,0,1,81.49,92.71Z"/><path class="cls-2" d="M127.86,81.56a9,9,0,1,1-9-9.07A8.93,8.93,0,0,1,127.86,81.56Z"/><path class="cls-2" d="M127.86,106.39a9,9,0,1,1-9.12-9A9,9,0,0,1,127.86,106.39Z"/><path class="cls-2" d="M152.87,106.47a9.05,9.05,0,1,1-9.09-9A9.09,9.09,0,0,1,152.87,106.47Z"/><path class="cls-2" d="M134.77,81.48a9.05,9.05,0,1,1,9.06,9.07A9,9,0,0,1,134.77,81.48Z"/><path class="cls-1" d="M80,97.48a4.51,4.51,0,0,1-3.07,1H71c-2,0-4,0-6,0-1.1,0-1.43.28-1.4,1.37q.12,6.06,0,12.11a4.5,4.5,0,0,1-8.71,1.73,6.5,6.5,0,0,1-.38-2.62c0-3.71,0-7.41,0-11.12,0-1.14-.3-1.5-1.47-1.47-3.76.07-7.52,0-11.27,0-3.3,0-5.39-1.8-5.34-4.57s2.19-4.49,5.31-4.49c3.66,0,7.31-.11,11,0,1.6.08,1.87-.48,1.85-1.93-.1-3.63-.05-7.29,0-10.94,0-3.2,1.78-5.18,4.55-5.16s4.52,2.08,4.55,5.21c0,3.81,0,7.64,0,11.45,0,1.09.28,1.37,1.37,1.37,4-.07,8,0,11.94,0a4.7,4.7,0,0,1,4.54,3.25A4.48,4.48,0,0,1,80,97.48Z"/><path class="cls-1" d="M152.87,106.47a9.05,9.05,0,1,1-9.09-9A9.09,9.09,0,0,1,152.87,106.47Z"/><path class="cls-1" d="M127.86,81.56a9,9,0,1,1-9-9.07A8.93,8.93,0,0,1,127.86,81.56Z"/><path class="cls-1" d="M127.86,106.39a9,9,0,1,1-9.12-9A9,9,0,0,1,127.86,106.39Z"/><path class="cls-1" d="M152.87,81.48a9.05,9.05,0,1,1-9-9A9,9,0,0,1,152.87,81.48Z"/></svg>