<svg id="Layer_1" data-name="Layer 1" xmlns="http://www.w3.org/2000/svg" viewBox="0 0 58.07 59.95"><defs><style>.cls-1{fill:#fff;stroke:#fff;stroke-miterlimit:10;stroke-width:0.45px;}</style></defs><path class="cls-1" d="M32.36.94C37.5,4,38.44,6.37,36.79,12.39c4.43,0,7.1,3.2,10.15,5.69,2.79,2.3,3.15,4.71.82,7.43a5.4,5.4,0,0,0-1.07,6.09c1.41,3.8,2.4,7.74,3.65,11.91H40c0,2.75-.11,5.29,0,7.81.2,3.79-1.25,6.41-4.94,7.62H33.26L30,57.32l-2.66,1.62H25.1C21.42,57.68,20,55,20.23,51.27c.14-2.47,0-5,0-7.67H9.92c1.29-4.71,2.43-9.15,3.75-13.52A4,4,0,0,0,12.84,26c-2.73-3.38-2.45-5.53.87-8.24,2.89-2.35,5.43-5.36,9.85-5.27a27.43,27.43,0,0,1-.77-2.72c-.77-4.32,1.52-6.93,5-8.83Zm-8.63,26.4H36.54V20.62H40V30c1.63-2.1,2.87-3.68,4.09-5.27,2.15-2.78,2-2.64-.56-5.14a12.07,12.07,0,0,0-10.4-3.79,21.44,21.44,0,0,1-5.88,0c-5.1-.83-8.66,1.76-11.94,5.05-.43.43-.84,1.53-.6,1.88,1.57,2.31,3.31,4.5,5,6.73l.54-.25V20.62h3.44Zm0,3.6V42.23c0,3.54,0,7.09,0,10.63a2.17,2.17,0,0,0,2.33,2.47c1.59,0,2.27-1,2.3-2.47s0-2.87,0-4.3c0-4.05,0-8.11,0-12.14h3.48c0,5.37,0,10.56,0,15.76,0,1.68.3,3.14,2.34,3.14s2.34-1.47,2.33-3.14c0-6.56,0-13.13,0-19.69a12.73,12.73,0,0,0-.18-1.55ZM34.2,8.3a4.13,4.13,0,0,0-4-4.08A4.17,4.17,0,0,0,26,8.39a4.07,4.07,0,0,0,4.26,4A4,4,0,0,0,34.2,8.3ZM14.45,40.08H20c1.05-3.67-.57-6.14-3.27-8.54Zm28.79-8.25c-2.57,2.36-4.07,4.84-3,8.3h5.47Z"/></svg>