<svg id="Layer_1" data-name="Layer 1" xmlns="http://www.w3.org/2000/svg" viewBox="0 0 58.07 59.95"><defs><style>.cls-1{fill:#fff;}</style></defs><path class="cls-1" d="M42.19,58.94c-2-.71-4-1.27-5.87-2.14-4.25-2-8.48-2.11-12.58.11a12.86,12.86,0,0,1-7.89,1.51c-4.43-.54-6.73-4.39-5-8.56a35.28,35.28,0,0,1,3.4-6c2-3,4.22-5.93,6.41-8.83,4.32-5.72,14.48-6,18.87.24,3.19,4.57,6.54,9.07,9.29,13.9s-.12,9.11-5.59,9.32c-.3,0-.61,0-.91,0Z"/><path class="cls-1" d="M27.69,13.32A14.92,14.92,0,0,1,25,22.59c-3,4-7.33,4-10.27-.06C11.13,17.61,11.1,9.1,14.63,4.14,17.6,0,22.2,0,25.14,4.19A15.34,15.34,0,0,1,27.69,13.32Z"/><path class="cls-1" d="M30.4,13.26A15,15,0,0,1,33.31,3.7C36,.27,39.91.13,42.82,3.33c4.38,4.83,4.29,15.34-.16,20.11-2.72,2.91-6.37,2.86-9-.2C31.16,20.39,30.4,16.94,30.4,13.26Z"/><path class="cls-1" d="M15.33,31.62a23.93,23.93,0,0,1-.49,2.66c-.94,3.13-3.52,4.35-6.54,3.14-5-2-8.61-9.84-6.87-15,1.11-3.27,4.12-4.33,7.34-2.58C12.46,21.88,15.24,26.91,15.33,31.62Z"/><path class="cls-1" d="M42.85,30.66A13.39,13.39,0,0,1,49.23,20c3.55-2.16,6.76-.65,7.64,3.42,1,4.41-1.49,10.41-5.39,13.1-1.81,1.26-3.81,2.05-5.94.85C43.25,36,42.86,33.75,42.85,30.66Z"/></svg>