<svg id="Layer_1" data-name="Layer 1" xmlns="http://www.w3.org/2000/svg" viewBox="0 0 89 73"><defs><style>.cls-1{fill:#fff;stroke:#fff;stroke-miterlimit:10;stroke-width:2px;}</style></defs><path class="cls-1" d="M64.5,16.14a6.16,6.16,0,0,1-5.82-2.31,9.53,9.53,0,0,0-9.9-3.08,4.58,4.58,0,0,1-4.51-1,9.45,9.45,0,0,0-2.65-1.61A2.23,2.23,0,0,1,40,5.87c-.11-2-1.38-2.82-3-1.73a82.73,82.73,0,0,0-9.31,7.12,8.35,8.35,0,0,0-2.57,7.32,2.78,2.78,0,0,1-.59,1.78,11.62,11.62,0,0,0-2.39,7.26,3.61,3.61,0,0,1-1.07,2.22c-4.43,4.62-8.87,9.21-13.4,13.72a5.5,5.5,0,0,0-1.88,4.49c.14,3.12,0,6.24,0,9.36,0,2,.15,3.86-1.35,5.63-1.22,1.45-.8,3.4.26,5a4.6,4.6,0,0,0,4.81,2.11c6.11-.82,12.23-1.55,18.32-2.49,14.68-2.26,29.32-4.79,44-6.88,8.64-1.23,11-6.75,11.82-13.08.3-2.5.19-5.05.38-7.57a64.85,64.85,0,0,1,.79-7.5c1.05-5.57-.9-8.92-6.39-10.31a8.2,8.2,0,0,1-4.65-2.73C71.49,16.83,69,16,64.5,16.14ZM9.5,47.66l63.41-12c0,2.57.12,4.94,0,7.29-.41,6.84-.41,7.05-7.24,8.23C51.11,53.72,36.52,56,21.94,58.36,17.85,59,13.75,59.57,9.5,60.2Zm36.18-32.9c1.24-.18,2.8-.31,4.31-.65a5.4,5.4,0,0,1,5.67,1.71c2.7,3.3,6.11,4.21,10.14,3.78a5.55,5.55,0,0,1,5.31,2.25c1.63,2.29,3.88,3.28,6.48,3.92,3.57.89,4.35,2.42,3.74,6-.44,2.62-.64,5.29-.84,7.94s-.15,5.06-.36,7.57c-.52,6.28-2.83,9-9,10-14.65,2.37-29.33,4.63-44,6.87-5.8.89-11.61,1.65-17.44,2.33-.69.08-1.49-.7-2.24-1.08.63-.56,1.24-1.12,1.88-1.65.1-.08.29,0,.44-.06C25.31,61.33,40.88,59,56.42,56.55c4.9-.78,9.76-1.9,14.57-3.13,4.2-1.07,4.7-1.81,5.06-6.15.3-3.63.14-7.31.68-10.9.59-4-1.34-6.47-4.45-8.14a20.07,20.07,0,0,0-6.86-2.33,55.7,55.7,0,0,1-15.79-4.45,5.55,5.55,0,0,1-2.42-2.28A27,27,0,0,1,45.68,14.76ZM23.94,33c5,3.58,11,3.39,16.92,2,4.84-1.16,9.68-2.6,10.21-8.42,5.33,1.05,10.48,2,15.58,3.11a27.67,27.67,0,0,1,4.7,2l-.17.7L13.61,43.24l-.19-.43ZM36.41,8.4a12.54,12.54,0,0,0,6.25,9.26,1.47,1.47,0,0,1,.16,2.6c-1.12.92-2.56,1.45-3.7,2.34a7,7,0,0,0-1.26,2c.75.42,1.59,1.31,2.23,1.18a20,20,0,0,0,3.83-1.65c.67-.3,1.74-.94,2-.71a4.37,4.37,0,0,1,1.29,2.38A3.45,3.45,0,0,1,45,29.61a23.72,23.72,0,0,1-14.93,2.12c-4.26-.84-4.81-1.68-4.17-6.65.22-1.67,1-3.17,3.31-2.15a4.79,4.79,0,0,0,2,.18c1.24,0,2.42-.48,2.13-1.87a3,3,0,0,0-2.09-1.61c-2.89-.43-3.63-1.5-2.31-4.14C30.5,12.32,33.3,10.38,36.41,8.4Z"/></svg>