<svg id="Layer_1" data-name="Layer 1" xmlns="http://www.w3.org/2000/svg" viewBox="0 0 137 124"><defs><style>.cls-1{stroke:#000;stroke-miterlimit:10;stroke-width:3px;}</style></defs><path class="cls-1" d="M104.37,98.14c-.81,4.11-2.54,7.22-6.88,7.75-5.69.7-7.72-3.54-9.71-7.6H82c0,1.88,0,3.65,0,5.41s.09,3.67,0,5.5c-.27,6.49-3.77,11.25-8.31,11.38-4.81.14-8.45-4.61-8.69-11.49-.12-3.31,0-6.63,0-10.65H41.48c-1.38,4.8-3.19,10.18-10,9.81-6.57-.36-6.39-6.15-7.4-10.62-4.52,0-8.83.26-13.1-.1-2.4-.2-6.67-1.28-6.73-2.19C4,91.79,3.9,87.06,6,84.75c6.29-7.06,13.61-13.21,20.54-19.7Q48.73,44.19,71,23.36a7.3,7.3,0,0,0,2.73-6.81C72.94,7.77,80.13,3,88.22,6.6A12.53,12.53,0,0,1,90.84,8C115,27,132,50.12,134.2,81.89c.88,12.64-2.6,16.08-15.41,16.24C114.14,98.19,109.48,98.14,104.37,98.14Zm-92.51-14c2.81,0,4-.05,5.12,0,8.86.48,11.15,2.86,11.24,11.63,0,1.33-.35,2.83.15,3.95.73,1.65,2.14,4.27,3.16,4.22a6.65,6.65,0,0,0,4.93-3.08c1-2.1.85-4.83.89-7.29.08-5.77,1.87-7.94,7.65-8.22s11.32-.23,17-.25c4.73,0,7.07,2.64,7.16,7.16.09,4.82-.23,9.65-.24,14.48,0,2-.15,4.18.64,5.87s2.65,3.65,4,3.63,3.35-2.06,4-3.66c.8-1.88.65-4.23.65-6.38,0-4.83-.39-9.67-.17-14.48.21-4.53,3.46-7.46,7.41-7,4.37.46,6.3,3.27,6.46,7.48,0,1-.08,2-.09,3,0,3.23.69,6.44,4.45,6.64,4.45.24,4-3.47,4-6.46.09-8.49,1.59-10.07,10.06-10.52a15.89,15.89,0,0,0,1.83-.3c2.48-18.41-15.93-49.83-35.81-61Zm117.63-11c-.1.69,0,.36,0,.07C124.54,47,109.34,27.58,89,11.53c-1.13-.89-2.76-1.84-4-1.71-2.24.24-5.64.73-6.29,2.15-1,2.1-.39,5.26.43,7.66.5,1.46,2.71,2.33,4.12,3.49C98.05,35.41,109.6,49.92,114.38,69c.56,2.24,1.08,4.48,1.37,5.68Zm-25,21c5.11,0,10.24.07,15.37,0,9.15-.16,11.81-3.48,9.08-12.15-.63-2-3.79-4.79-5.29-4.51-2.42.45-6.42,3.3-6.29,4.84.6,7.22-3.64,6.93-8.39,6.6C105.66,88.64,103.86,89.9,104.47,94.11Zm-63.38-.4h24.2l.83-1.41c-1.54-1.07-3-2.93-4.64-3.08C47.64,87.94,42.64,89,41.09,93.71Zm-34.8-.78H24.18c-1.74-4.52-7-6.08-13.86-4.24C9,89.05,8.08,91,6.29,92.93Zm81.33,1,1.09-1.19-3.81-4-4.47,5.21Z"/><path class="cls-1" d="M89.33,71.83c-6.24-.06-11.35-5-11.31-11a11.43,11.43,0,0,1,22.85.2A11.31,11.31,0,0,1,89.33,71.83Zm.2-4c4.15-.06,7.55-3.28,7.5-7.11s-3.54-6.93-7.7-6.88S81.8,57.1,81.86,61,85.39,67.92,89.53,67.86Z"/><path class="cls-1" d="M54.42,78.27C48.05,78.2,43,73.44,43,67.44A11.35,11.35,0,0,1,54.72,56.28C60.83,56.43,66,61.6,65.89,67.5A11.19,11.19,0,0,1,54.42,78.27Zm.22-17.92c-4.13-.11-7.66,3-7.77,6.8s3.16,7,7.39,7.12S61.92,71.4,62,67.53,58.81,60.46,54.64,60.35Z"/></svg>